<svg width="252" height="426" viewBox="0 0 252 426" fill="none" xmlns="http://www.w3.org/2000/svg">
<path d="M13.481 0L25.1559 20.2215H1.80611L13.481 0Z" fill="#B5A2FC"/>
<path d="M39.5443 0L51.2192 20.2215H27.8694L39.5443 0Z" fill="#B5A2FC"/>
<path d="M66.5063 0L78.1812 20.2215H54.8314L66.5063 0Z" fill="#B5A2FC"/>
<path d="M93.4683 0L105.143 20.2215H81.7934L93.4683 0Z" fill="#B5A2FC"/>
<path d="M125.823 0L137.498 20.2215H114.148L125.823 0Z" fill="#B5A2FC"/>
<path d="M157.278 0L168.953 20.2215H145.604L157.278 0Z" fill="#B5A2FC"/>
<path d="M184.241 0L195.915 20.2215H172.566L184.241 0Z" fill="#B5A2FC"/>
<path d="M211.203 0L222.877 20.2215H199.528L211.203 0Z" fill="#B5A2FC"/>
<path d="M238.165 0L249.839 20.2215H226.49L238.165 0Z" fill="#B5A2FC"/>
<rect x="1.79749" y="19.7722" width="248.051" height="386.456" fill="#B5A2FC"/>
<g filter="url(#filter0_d_101_9)">
<path d="M50.9254 109H59.9694C68.5374 109 73.5354 103.9 73.5354 97.032V96.964C73.5354 90.096 68.6054 85.2 60.1054 85.2H50.9254V109ZM57.5214 103.152V91.048H60.2074C64.1514 91.048 66.7694 93.258 66.7694 97.066V97.134C66.7694 100.976 64.1514 103.152 60.2074 103.152H57.5214ZM81.6534 109.408C84.0674 109.408 85.8014 108.49 87.0594 107.096V109H93.4514V98.426C93.4514 95.842 92.8734 93.938 91.4794 92.578C90.0174 91.116 87.7734 90.334 84.4754 90.334C81.3134 90.334 79.1034 90.912 77.0294 91.762L78.3554 96.318C79.9874 95.672 81.4834 95.298 83.4214 95.298C85.9034 95.298 87.0934 96.386 87.0934 98.29V98.596C86.0394 98.222 84.3734 97.882 82.6734 97.882C78.3554 97.882 75.4654 99.854 75.4654 103.662V103.73C75.4654 107.402 78.1514 109.408 81.6534 109.408ZM83.9654 105.362C82.6394 105.362 81.6874 104.614 81.6874 103.356V103.288C81.6874 101.928 82.7754 101.01 84.6454 101.01C85.5974 101.01 86.5154 101.214 87.1614 101.486V102.336C87.1614 104.172 85.8354 105.362 83.9654 105.362ZM101.314 114.542C104.986 114.542 106.72 112.842 108.318 108.558L115.05 90.606H108.42L104.952 101.69L101.28 90.606H94.5136L101.722 108.66C101.314 109.238 100.872 109.408 100.226 109.408C99.5116 109.408 98.4236 109.034 97.4036 108.422L95.3976 112.944C97.0976 113.896 99.0356 114.542 101.314 114.542ZM126.961 109H133.557V102.2H136.821C142.737 102.2 147.055 99.242 147.055 93.632V93.564C147.055 88.294 143.179 85.2 137.161 85.2H126.961V109ZM133.557 97.032V90.742H136.651C139.031 90.742 140.459 91.83 140.459 93.87V93.938C140.459 95.808 139.031 97.032 136.685 97.032H133.557ZM154.235 109.408C156.649 109.408 158.383 108.49 159.641 107.096V109H166.033V98.426C166.033 95.842 165.455 93.938 164.061 92.578C162.599 91.116 160.355 90.334 157.057 90.334C153.895 90.334 151.685 90.912 149.611 91.762L150.937 96.318C152.569 95.672 154.065 95.298 156.003 95.298C158.485 95.298 159.675 96.386 159.675 98.29V98.596C158.621 98.222 156.955 97.882 155.255 97.882C150.937 97.882 148.047 99.854 148.047 103.662V103.73C148.047 107.402 150.733 109.408 154.235 109.408ZM156.547 105.362C155.221 105.362 154.269 104.614 154.269 103.356V103.288C154.269 101.928 155.357 101.01 157.227 101.01C158.179 101.01 159.097 101.214 159.743 101.486V102.336C159.743 104.172 158.417 105.362 156.547 105.362ZM176.629 109.408C181.117 109.408 184.143 107.3 184.143 103.254V103.186C184.143 99.616 181.253 98.358 177.615 97.338C175.677 96.76 174.623 96.42 174.623 95.706V95.638C174.623 95.128 175.133 94.754 176.119 94.754C177.581 94.754 179.655 95.4 181.559 96.454L183.769 92.374C181.661 91.014 178.873 90.232 176.187 90.232C171.937 90.232 168.809 92.408 168.809 96.318V96.386C168.809 100.092 171.699 101.316 175.337 102.268C177.275 102.812 178.295 103.118 178.295 103.832V103.9C178.295 104.546 177.785 104.886 176.663 104.886C174.759 104.886 172.447 104.172 170.339 102.778L167.925 106.688C170.475 108.524 173.535 109.408 176.629 109.408ZM193.762 109.408C198.25 109.408 201.276 107.3 201.276 103.254V103.186C201.276 99.616 198.386 98.358 194.748 97.338C192.81 96.76 191.756 96.42 191.756 95.706V95.638C191.756 95.128 192.266 94.754 193.252 94.754C194.714 94.754 196.788 95.4 198.692 96.454L200.902 92.374C198.794 91.014 196.006 90.232 193.32 90.232C189.07 90.232 185.942 92.408 185.942 96.318V96.386C185.942 100.092 188.832 101.316 192.47 102.268C194.408 102.812 195.428 103.118 195.428 103.832V103.9C195.428 104.546 194.918 104.886 193.796 104.886C191.892 104.886 189.58 104.172 187.472 102.778L185.058 106.688C187.608 108.524 190.668 109.408 193.762 109.408Z" fill="#F2EEED"/>
</g>
<g filter="url(#filter1_d_101_9)">
<path d="M85.4978 145H91.3178V129.1H97.6178V124H79.1978V129.1H85.4978V145ZM99.696 127.3H105.636V123.1H99.696V127.3ZM99.816 145H105.516V128.77H99.816V145ZM116.52 145.39C120.09 145.39 122.25 143.89 123.75 141.67L119.94 138.91C119.04 139.96 118.17 140.59 116.82 140.59C114.9 140.59 113.58 139 113.58 136.9V136.84C113.58 134.86 114.93 133.24 116.76 133.24C118.14 133.24 119.01 133.87 119.79 134.95L123.66 132.07C122.28 129.88 120.06 128.44 116.73 128.44C111.6 128.44 108.03 132.31 108.03 136.9V136.96C108.03 141.55 111.63 145.39 116.52 145.39ZM125.77 145H131.47V141.19L132.94 139.48L136.21 145H142.48L136.69 135.28L142.33 128.77H135.88L131.47 134.2V123.1H125.77V145ZM150.978 145.39C154.218 145.39 156.468 144.07 158.028 142.09L154.878 139.48C153.708 140.62 152.628 141.13 151.278 141.13C149.508 141.13 148.218 140.23 147.768 138.46H158.628C158.658 138.07 158.658 137.65 158.658 137.29C158.658 132.52 156.078 128.41 150.468 128.41C145.668 128.41 142.278 132.16 142.278 136.9V136.96C142.278 142 145.878 145.39 150.978 145.39ZM147.678 135.55C147.978 133.78 148.998 132.61 150.498 132.61C152.058 132.61 153.108 133.75 153.318 135.55H147.678ZM167.552 145.33C169.142 145.33 170.492 144.97 171.512 144.4V139.93C170.822 140.26 170.102 140.47 169.352 140.47C168.302 140.47 167.792 139.99 167.792 138.85V133.36H171.572V128.77H167.792V124.66H162.092V128.77H160.172V133.36H162.092V139.96C162.092 143.83 164.132 145.33 167.552 145.33Z" fill="#F2EEED"/>
</g>
<g filter="url(#filter2_d_101_9)">
<path d="M93.327 204.528H97.071V201C102.183 200.532 105.567 197.832 105.567 193.44V193.368C105.567 188.904 102.687 186.852 96.963 185.52V181.344C98.583 181.74 100.311 182.46 101.787 183.504L104.739 178.68C102.579 177.204 100.095 176.196 97.143 175.872V173.712H93.399V175.764C87.891 176.16 84.795 179.112 84.795 183.36V183.432C84.795 187.896 87.747 189.876 93.543 191.208V195.528C91.311 195.168 89.151 194.196 86.847 192.576L83.607 197.364C86.307 199.308 89.799 200.568 93.327 200.928V204.528ZM93.579 184.908C91.635 184.368 91.131 183.828 91.131 182.892V182.82C91.131 181.884 91.815 181.164 93.579 181.02V184.908ZM96.927 195.744V191.784C98.799 192.324 99.339 192.864 99.339 193.836V193.908C99.339 194.952 98.583 195.564 96.927 195.744ZM112.552 201H119.428V175.62H114.352L106.972 177.708L108.304 183.108L112.552 182.136V201ZM124.103 201H131.807L142.931 181.056V175.8H123.527V181.668H135.191L124.103 201ZM154.149 201.504C161.709 201.504 165.813 195.888 165.813 187.644V187.572C165.813 182.928 164.625 180.048 162.789 178.248C160.881 176.34 158.721 175.296 155.049 175.296C149.289 175.296 145.005 178.896 145.005 184.476V184.548C145.005 189.48 148.569 192.504 153.465 192.504C155.697 192.504 157.497 191.676 158.793 190.452C158.469 193.692 156.921 195.708 154.041 195.708C152.025 195.708 150.369 195.06 148.641 193.692L145.365 198.516C147.669 200.316 150.405 201.504 154.149 201.504ZM155.373 187.5C153.177 187.5 151.773 186.096 151.773 184.188V184.116C151.773 182.172 153.105 180.732 155.301 180.732C157.497 180.732 158.901 182.208 158.901 184.152V184.224C158.901 186.06 157.569 187.5 155.373 187.5Z" fill="#F2EEED"/>
</g>
<g filter="url(#filter3_d_101_9)">
<path d="M71.45 275.88H77.69V270C86.21 269.22 91.85 264.72 91.85 257.4V257.28C91.85 249.84 87.05 246.42 77.51 244.2V237.24C80.21 237.9 83.09 239.1 85.55 240.84L90.47 232.8C86.87 230.34 82.73 228.66 77.81 228.12V224.52H71.57V227.94C62.39 228.6 57.23 233.52 57.23 240.6V240.72C57.23 248.16 62.15 251.46 71.81 253.68V260.88C68.09 260.28 64.49 258.66 60.65 255.96L55.25 263.94C59.75 267.18 65.57 269.28 71.45 269.88V275.88ZM71.87 243.18C68.63 242.28 67.79 241.38 67.79 239.82V239.7C67.79 238.14 68.93 236.94 71.87 236.7V243.18ZM77.45 261.24V254.64C80.57 255.54 81.47 256.44 81.47 258.06V258.18C81.47 259.92 80.21 260.94 77.45 261.24ZM103.491 270H114.951V227.7H106.491L94.1909 231.18L96.4109 240.18L103.491 238.56V270ZM137.203 270.84C147.403 270.84 154.543 265.26 154.543 255.9V255.78C154.543 246.66 147.703 242.46 140.143 242.46C137.323 242.46 135.343 243.06 133.423 243.96L133.783 237.6H152.683V228H124.603L123.403 249.3L130.303 253.14C132.283 251.94 134.443 251.04 137.023 251.04C140.683 251.04 143.203 252.9 143.203 255.9V256.02C143.203 259.02 140.863 260.94 137.023 260.94C133.483 260.94 130.243 259.26 126.823 256.38L120.163 264.18C124.543 268.26 129.763 270.84 137.203 270.84ZM174.343 270.84C186.943 270.84 193.783 261.48 193.783 247.74V247.62C193.783 239.88 191.803 235.08 188.743 232.08C185.563 228.9 181.963 227.16 175.843 227.16C166.243 227.16 159.103 233.16 159.103 242.46V242.58C159.103 250.8 165.043 255.84 173.203 255.84C176.923 255.84 179.923 254.46 182.083 252.42C181.543 257.82 178.963 261.18 174.163 261.18C170.803 261.18 168.043 260.1 165.163 257.82L159.703 265.86C163.543 268.86 168.103 270.84 174.343 270.84ZM176.383 247.5C172.723 247.5 170.383 245.16 170.383 241.98V241.86C170.383 238.62 172.603 236.22 176.263 236.22C179.923 236.22 182.263 238.68 182.263 241.92V242.04C182.263 245.1 180.043 247.5 176.383 247.5Z" fill="#F2EEED"/>
</g>
<g filter="url(#filter4_d_101_9)">
<rect x="25.1646" y="63.8101" width="199.519" height="7.18987" fill="#F2EEED"/>
</g>
<g filter="url(#filter5_d_101_9)">
<rect width="199.519" height="5.39241" transform="matrix(1 0 0 -1 25.1646 364.886)" fill="#F2EEED"/>
</g>
<g filter="url(#filter6_d_101_9)">
<rect x="62.0127" y="41.3418" width="125.823" height="7.18987" fill="#F2EEED"/>
</g>
<g filter="url(#filter7_d_101_9)">
<rect width="125.823" height="6.29114" transform="matrix(1 0 0 -1 62.0127 384.658)" fill="#F2EEED"/>
</g>
<g filter="url(#filter8_d_101_9)">
<path d="M74 206L177 171" stroke="#F3516F" stroke-width="5" stroke-linecap="square"/>
</g>
<path d="M197.17 270H199.498V267.6H200.65C202.738 267.6 204.262 266.556 204.262 264.576V264.552C204.262 262.692 202.894 261.6 200.77 261.6H197.17V270ZM199.498 265.776V263.556H200.59C201.43 263.556 201.934 263.94 201.934 264.66V264.684C201.934 265.344 201.43 265.776 200.602 265.776H199.498ZM205.244 270H207.572V267.6H208.724C210.812 267.6 212.336 266.556 212.336 264.576V264.552C212.336 262.692 210.968 261.6 208.844 261.6H205.244V270ZM207.572 265.776V263.556H208.664C209.504 263.556 210.008 263.94 210.008 264.66V264.684C210.008 265.344 209.504 265.776 208.676 265.776H207.572Z" fill="white"/>
<path d="M13.481 426L25.1559 405.778H1.80611L13.481 426Z" fill="#B5A2FC"/>
<path d="M40.443 426L52.1179 405.778H28.7681L40.443 426Z" fill="#B5A2FC"/>
<path d="M67.4051 426L79.08 405.778H55.7302L67.4051 426Z" fill="#B5A2FC"/>
<path d="M94.3671 426L106.042 405.778H82.6922L94.3671 426Z" fill="#B5A2FC"/>
<path d="M125.823 426L137.498 405.778H114.148L125.823 426Z" fill="#B5A2FC"/>
<path d="M157.278 426L168.953 405.778H145.604L157.278 426Z" fill="#B5A2FC"/>
<path d="M184.241 426L195.915 405.778H172.566L184.241 426Z" fill="#B5A2FC"/>
<path d="M211.203 426L222.877 405.778H199.528L211.203 426Z" fill="#B5A2FC"/>
<path d="M238.165 426L249.839 405.778H226.49L238.165 426Z" fill="#B5A2FC"/>
<defs>
<filter id="filter0_d_101_9" x="46.9254" y="85.2" width="158.35" height="37.342" filterUnits="userSpaceOnUse" color-interpolation-filters="sRGB">
<feFlood flood-opacity="0" result="BackgroundImageFix"/>
<feColorMatrix in="SourceAlpha" type="matrix" values="0 0 0 0 0 0 0 0 0 0 0 0 0 0 0 0 0 0 127 0" result="hardAlpha"/>
<feOffset dy="4"/>
<feGaussianBlur stdDeviation="2"/>
<feComposite in2="hardAlpha" operator="out"/>
<feColorMatrix type="matrix" values="0 0 0 0 0 0 0 0 0 0 0 0 0 0 0 0 0 0 0.25 0"/>
<feBlend mode="normal" in2="BackgroundImageFix" result="effect1_dropShadow_101_9"/>
<feBlend mode="normal" in="SourceGraphic" in2="effect1_dropShadow_101_9" result="shape"/>
</filter>
<filter id="filter1_d_101_9" x="75.1978" y="123.1" width="100.374" height="30.29" filterUnits="userSpaceOnUse" color-interpolation-filters="sRGB">
<feFlood flood-opacity="0" result="BackgroundImageFix"/>
<feColorMatrix in="SourceAlpha" type="matrix" values="0 0 0 0 0 0 0 0 0 0 0 0 0 0 0 0 0 0 127 0" result="hardAlpha"/>
<feOffset dy="4"/>
<feGaussianBlur stdDeviation="2"/>
<feComposite in2="hardAlpha" operator="out"/>
<feColorMatrix type="matrix" values="0 0 0 0 0 0 0 0 0 0 0 0 0 0 0 0 0 0 0.25 0"/>
<feBlend mode="normal" in2="BackgroundImageFix" result="effect1_dropShadow_101_9"/>
<feBlend mode="normal" in="SourceGraphic" in2="effect1_dropShadow_101_9" result="shape"/>
</filter>
<filter id="filter2_d_101_9" x="79.607" y="173.712" width="90.206" height="38.816" filterUnits="userSpaceOnUse" color-interpolation-filters="sRGB">
<feFlood flood-opacity="0" result="BackgroundImageFix"/>
<feColorMatrix in="SourceAlpha" type="matrix" values="0 0 0 0 0 0 0 0 0 0 0 0 0 0 0 0 0 0 127 0" result="hardAlpha"/>
<feOffset dy="4"/>
<feGaussianBlur stdDeviation="2"/>
<feComposite in2="hardAlpha" operator="out"/>
<feColorMatrix type="matrix" values="0 0 0 0 0 0 0 0 0 0 0 0 0 0 0 0 0 0 0.25 0"/>
<feBlend mode="normal" in2="BackgroundImageFix" result="effect1_dropShadow_101_9"/>
<feBlend mode="normal" in="SourceGraphic" in2="effect1_dropShadow_101_9" result="shape"/>
</filter>
<filter id="filter3_d_101_9" x="51.25" y="224.52" width="146.533" height="59.36" filterUnits="userSpaceOnUse" color-interpolation-filters="sRGB">
<feFlood flood-opacity="0" result="BackgroundImageFix"/>
<feColorMatrix in="SourceAlpha" type="matrix" values="0 0 0 0 0 0 0 0 0 0 0 0 0 0 0 0 0 0 127 0" result="hardAlpha"/>
<feOffset dy="4"/>
<feGaussianBlur stdDeviation="2"/>
<feComposite in2="hardAlpha" operator="out"/>
<feColorMatrix type="matrix" values="0 0 0 0 0 0 0 0 0 0 0 0 0 0 0 0 0 0 0.25 0"/>
<feBlend mode="normal" in2="BackgroundImageFix" result="effect1_dropShadow_101_9"/>
<feBlend mode="normal" in="SourceGraphic" in2="effect1_dropShadow_101_9" result="shape"/>
</filter>
<filter id="filter4_d_101_9" x="21.1646" y="63.8101" width="207.519" height="15.1899" filterUnits="userSpaceOnUse" color-interpolation-filters="sRGB">
<feFlood flood-opacity="0" result="BackgroundImageFix"/>
<feColorMatrix in="SourceAlpha" type="matrix" values="0 0 0 0 0 0 0 0 0 0 0 0 0 0 0 0 0 0 127 0" result="hardAlpha"/>
<feOffset dy="4"/>
<feGaussianBlur stdDeviation="2"/>
<feComposite in2="hardAlpha" operator="out"/>
<feColorMatrix type="matrix" values="0 0 0 0 0 0 0 0 0 0 0 0 0 0 0 0 0 0 0.25 0"/>
<feBlend mode="normal" in2="BackgroundImageFix" result="effect1_dropShadow_101_9"/>
<feBlend mode="normal" in="SourceGraphic" in2="effect1_dropShadow_101_9" result="shape"/>
</filter>
<filter id="filter5_d_101_9" x="21.1646" y="359.494" width="207.519" height="13.3924" filterUnits="userSpaceOnUse" color-interpolation-filters="sRGB">
<feFlood flood-opacity="0" result="BackgroundImageFix"/>
<feColorMatrix in="SourceAlpha" type="matrix" values="0 0 0 0 0 0 0 0 0 0 0 0 0 0 0 0 0 0 127 0" result="hardAlpha"/>
<feOffset dy="4"/>
<feGaussianBlur stdDeviation="2"/>
<feComposite in2="hardAlpha" operator="out"/>
<feColorMatrix type="matrix" values="0 0 0 0 0 0 0 0 0 0 0 0 0 0 0 0 0 0 0.25 0"/>
<feBlend mode="normal" in2="BackgroundImageFix" result="effect1_dropShadow_101_9"/>
<feBlend mode="normal" in="SourceGraphic" in2="effect1_dropShadow_101_9" result="shape"/>
</filter>
<filter id="filter6_d_101_9" x="58.0127" y="41.3418" width="133.823" height="15.1899" filterUnits="userSpaceOnUse" color-interpolation-filters="sRGB">
<feFlood flood-opacity="0" result="BackgroundImageFix"/>
<feColorMatrix in="SourceAlpha" type="matrix" values="0 0 0 0 0 0 0 0 0 0 0 0 0 0 0 0 0 0 127 0" result="hardAlpha"/>
<feOffset dy="4"/>
<feGaussianBlur stdDeviation="2"/>
<feComposite in2="hardAlpha" operator="out"/>
<feColorMatrix type="matrix" values="0 0 0 0 0 0 0 0 0 0 0 0 0 0 0 0 0 0 0.25 0"/>
<feBlend mode="normal" in2="BackgroundImageFix" result="effect1_dropShadow_101_9"/>
<feBlend mode="normal" in="SourceGraphic" in2="effect1_dropShadow_101_9" result="shape"/>
</filter>
<filter id="filter7_d_101_9" x="58.0127" y="378.367" width="133.823" height="14.2911" filterUnits="userSpaceOnUse" color-interpolation-filters="sRGB">
<feFlood flood-opacity="0" result="BackgroundImageFix"/>
<feColorMatrix in="SourceAlpha" type="matrix" values="0 0 0 0 0 0 0 0 0 0 0 0 0 0 0 0 0 0 127 0" result="hardAlpha"/>
<feOffset dy="4"/>
<feGaussianBlur stdDeviation="2"/>
<feComposite in2="hardAlpha" operator="out"/>
<feColorMatrix type="matrix" values="0 0 0 0 0 0 0 0 0 0 0 0 0 0 0 0 0 0 0.25 0"/>
<feBlend mode="normal" in2="BackgroundImageFix" result="effect1_dropShadow_101_9"/>
<feBlend mode="normal" in="SourceGraphic" in2="effect1_dropShadow_101_9" result="shape"/>
</filter>
<filter id="filter8_d_101_9" x="66.8286" y="167.829" width="117.343" height="49.3428" filterUnits="userSpaceOnUse" color-interpolation-filters="sRGB">
<feFlood flood-opacity="0" result="BackgroundImageFix"/>
<feColorMatrix in="SourceAlpha" type="matrix" values="0 0 0 0 0 0 0 0 0 0 0 0 0 0 0 0 0 0 127 0" result="hardAlpha"/>
<feOffset dy="4"/>
<feGaussianBlur stdDeviation="2"/>
<feComposite in2="hardAlpha" operator="out"/>
<feColorMatrix type="matrix" values="0 0 0 0 0 0 0 0 0 0 0 0 0 0 0 0 0 0 0.25 0"/>
<feBlend mode="normal" in2="BackgroundImageFix" result="effect1_dropShadow_101_9"/>
<feBlend mode="normal" in="SourceGraphic" in2="effect1_dropShadow_101_9" result="shape"/>
</filter>
</defs>
</svg>
