<svg width="252" height="426" viewBox="0 0 252 426" fill="none" xmlns="http://www.w3.org/2000/svg">
<path d="M13.481 0L25.1559 20.2215H1.80611L13.481 0Z" fill="#B5A2FC"/>
<path d="M39.5443 0L51.2192 20.2215H27.8694L39.5443 0Z" fill="#B5A2FC"/>
<path d="M66.5063 0L78.1812 20.2215H54.8314L66.5063 0Z" fill="#B5A2FC"/>
<path d="M93.4683 0L105.143 20.2215H81.7934L93.4683 0Z" fill="#B5A2FC"/>
<path d="M125.823 0L137.498 20.2215H114.148L125.823 0Z" fill="#B5A2FC"/>
<path d="M157.278 0L168.953 20.2215H145.604L157.278 0Z" fill="#B5A2FC"/>
<path d="M184.241 0L195.915 20.2215H172.566L184.241 0Z" fill="#B5A2FC"/>
<path d="M211.203 0L222.877 20.2215H199.528L211.203 0Z" fill="#B5A2FC"/>
<path d="M238.165 0L249.839 20.2215H226.49L238.165 0Z" fill="#B5A2FC"/>
<rect x="1.79745" y="19.7722" width="248.051" height="386.456" fill="#B5A2FC"/>
<g filter="url(#filter0_d_101_6)">
<path d="M10.1851 109H16.7811V100.5H28.0351V95.026H16.7811V90.98H29.2251V85.2H10.1851V109ZM37.978 109.408C40.596 109.408 42.296 108.014 43.486 106.484V109H49.946V90.606H43.486V100.568C43.486 102.574 42.33 103.662 40.8 103.662C39.236 103.662 38.182 102.574 38.182 100.568V90.606H31.722V102.642C31.722 106.824 34.068 109.408 37.978 109.408ZM53.5429 109H60.0029V84.18H53.5429V109ZM63.7362 109H70.1962V84.18H63.7362V109ZM89.9553 109.17H95.7013L100.461 95.468L105.255 109.17H111.001L118.957 85.2H112.123L107.975 98.97L103.385 85.132H97.7073L93.1173 98.97L88.9693 85.2H81.9993L89.9553 109.17ZM128.029 109.442C131.701 109.442 134.251 107.946 136.019 105.702L132.449 102.744C131.123 104.036 129.899 104.614 128.369 104.614C126.363 104.614 124.901 103.594 124.391 101.588H136.699C136.733 101.146 136.733 100.67 136.733 100.262C136.733 94.856 133.809 90.198 127.451 90.198C122.011 90.198 118.169 94.448 118.169 99.82V99.888C118.169 105.6 122.249 109.442 128.029 109.442ZM124.289 98.29C124.629 96.284 125.785 94.958 127.485 94.958C129.253 94.958 130.443 96.25 130.681 98.29H124.289ZM148.615 109.442C152.287 109.442 154.837 107.946 156.605 105.702L153.035 102.744C151.709 104.036 150.485 104.614 148.955 104.614C146.949 104.614 145.487 103.594 144.977 101.588H157.285C157.319 101.146 157.319 100.67 157.319 100.262C157.319 94.856 154.395 90.198 148.037 90.198C142.597 90.198 138.755 94.448 138.755 99.82V99.888C138.755 105.6 142.835 109.442 148.615 109.442ZM144.875 98.29C145.215 96.284 146.371 94.958 148.071 94.958C149.839 94.958 151.029 96.25 151.267 98.29H144.875ZM160.088 109H166.548V104.682L168.214 102.744L171.92 109H179.026L172.464 97.984L178.856 90.606H171.546L166.548 96.76V84.18H160.088V109ZM188.658 109.442C192.33 109.442 194.88 107.946 196.648 105.702L193.078 102.744C191.752 104.036 190.528 104.614 188.998 104.614C186.992 104.614 185.53 103.594 185.02 101.588H197.328C197.362 101.146 197.362 100.67 197.362 100.262C197.362 94.856 194.438 90.198 188.08 90.198C182.64 90.198 178.798 94.448 178.798 99.82V99.888C178.798 105.6 182.878 109.442 188.658 109.442ZM184.918 98.29C185.258 96.284 186.414 94.958 188.114 94.958C189.882 94.958 191.072 96.25 191.31 98.29H184.918ZM200.131 109H206.591V99.038C206.591 97.032 207.747 95.944 209.311 95.944C210.841 95.944 211.895 97.032 211.895 99.038V109H218.355V96.964C218.355 92.782 216.009 90.198 212.099 90.198C209.481 90.198 207.781 91.66 206.591 93.19V90.606H200.131V109ZM229.126 109.408C231.88 109.408 233.478 108.082 234.736 106.552V109H241.196V84.18H234.736V92.85C233.512 91.456 231.88 90.198 229.092 90.198C224.74 90.198 221 93.836 221 99.82V99.888C221 105.77 224.774 109.408 229.126 109.408ZM231.098 104.002C229.024 104.002 227.324 102.268 227.324 99.82V99.752C227.324 97.304 229.024 95.604 231.098 95.604C233.172 95.604 234.838 97.338 234.838 99.752V99.82C234.838 102.268 233.172 104.002 231.098 104.002Z" fill="#F2EEED"/>
</g>
<g filter="url(#filter1_d_101_6)">
<path d="M85.4978 145H91.3178V129.1H97.6178V124H79.1978V129.1H85.4978V145ZM99.696 127.3H105.636V123.1H99.696V127.3ZM99.816 145H105.516V128.77H99.816V145ZM116.52 145.39C120.09 145.39 122.25 143.89 123.75 141.67L119.94 138.91C119.04 139.96 118.17 140.59 116.82 140.59C114.9 140.59 113.58 139 113.58 136.9V136.84C113.58 134.86 114.93 133.24 116.76 133.24C118.14 133.24 119.01 133.87 119.79 134.95L123.66 132.07C122.28 129.88 120.06 128.44 116.73 128.44C111.6 128.44 108.03 132.31 108.03 136.9V136.96C108.03 141.55 111.63 145.39 116.52 145.39ZM125.77 145H131.47V141.19L132.94 139.48L136.21 145H142.48L136.69 135.28L142.33 128.77H135.88L131.47 134.2V123.1H125.77V145ZM150.978 145.39C154.218 145.39 156.468 144.07 158.028 142.09L154.878 139.48C153.708 140.62 152.628 141.13 151.278 141.13C149.508 141.13 148.218 140.23 147.768 138.46H158.628C158.658 138.07 158.658 137.65 158.658 137.29C158.658 132.52 156.078 128.41 150.468 128.41C145.668 128.41 142.278 132.16 142.278 136.9V136.96C142.278 142 145.878 145.39 150.978 145.39ZM147.678 135.55C147.978 133.78 148.998 132.61 150.498 132.61C152.058 132.61 153.108 133.75 153.318 135.55H147.678ZM167.552 145.33C169.142 145.33 170.492 144.97 171.512 144.4V139.93C170.822 140.26 170.102 140.47 169.352 140.47C168.302 140.47 167.792 139.99 167.792 138.85V133.36H171.572V128.77H167.792V124.66H162.092V128.77H160.172V133.36H162.092V139.96C162.092 143.83 164.132 145.33 167.552 145.33Z" fill="#F2EEED"/>
</g>
<g filter="url(#filter2_d_101_6)">
<path d="M89.0555 204.528H92.7995V201C97.9115 200.532 101.296 197.832 101.296 193.44V193.368C101.296 188.904 98.4155 186.852 92.6915 185.52V181.344C94.3115 181.74 96.0395 182.46 97.5155 183.504L100.468 178.68C98.3075 177.204 95.8235 176.196 92.8715 175.872V173.712H89.1275V175.764C83.6195 176.16 80.5235 179.112 80.5235 183.36V183.432C80.5235 187.896 83.4755 189.876 89.2715 191.208V195.528C87.0395 195.168 84.8795 194.196 82.5755 192.576L79.3355 197.364C82.0355 199.308 85.5275 200.568 89.0555 200.928V204.528ZM89.3075 184.908C87.3635 184.368 86.8595 183.828 86.8595 182.892V182.82C86.8595 181.884 87.5435 181.164 89.3075 181.02V184.908ZM92.6555 195.744V191.784C94.5275 192.324 95.0675 192.864 95.0675 193.836V193.908C95.0675 194.952 94.3115 195.564 92.6555 195.744ZM116.236 201H123.004V196.104H126.208V190.884H123.004V175.62H115.948L102.88 191.172L104.032 196.104H116.236V201ZM110.224 190.92L116.236 183.684V190.92H110.224ZM128.375 201H136.079L147.203 181.056V175.8H127.799V181.668H139.463L128.375 201ZM158.421 201.504C165.981 201.504 170.085 195.888 170.085 187.644V187.572C170.085 182.928 168.897 180.048 167.061 178.248C165.153 176.34 162.993 175.296 159.321 175.296C153.561 175.296 149.277 178.896 149.277 184.476V184.548C149.277 189.48 152.841 192.504 157.737 192.504C159.969 192.504 161.769 191.676 163.065 190.452C162.741 193.692 161.193 195.708 158.313 195.708C156.297 195.708 154.641 195.06 152.913 193.692L149.637 198.516C151.941 200.316 154.677 201.504 158.421 201.504ZM159.645 187.5C157.449 187.5 156.045 186.096 156.045 184.188V184.116C156.045 182.172 157.377 180.732 159.573 180.732C161.769 180.732 163.173 182.208 163.173 184.152V184.224C163.173 186.06 161.841 187.5 159.645 187.5Z" fill="#F2EEED"/>
</g>
<g filter="url(#filter3_d_101_6)">
<path d="M65.7371 275.88H71.9771V270C80.4971 269.22 86.1371 264.72 86.1371 257.4V257.28C86.1371 249.84 81.3371 246.42 71.7971 244.2V237.24C74.4971 237.9 77.3771 239.1 79.8371 240.84L84.7571 232.8C81.1571 230.34 77.0171 228.66 72.0971 228.12V224.52H65.8571V227.94C56.6771 228.6 51.5171 233.52 51.5171 240.6V240.72C51.5171 248.16 56.4371 251.46 66.0971 253.68V260.88C62.3771 260.28 58.7771 258.66 54.9371 255.96L49.5371 263.94C54.0371 267.18 59.8571 269.28 65.7371 269.88V275.88ZM66.1571 243.18C62.9171 242.28 62.0771 241.38 62.0771 239.82V239.7C62.0771 238.14 63.2171 236.94 66.1571 236.7V243.18ZM71.7371 261.24V254.64C74.8571 255.54 75.7571 256.44 75.7571 258.06V258.18C75.7571 259.92 74.4971 260.94 71.7371 261.24ZM106.958 270.84C116.318 270.84 123.158 265.38 123.158 256.86V256.74C123.158 249.6 118.298 246.24 112.298 244.92L122.318 236.34V228H91.958V237.42H108.038L98.378 246.12L100.058 252.18H104.978C109.358 252.18 111.818 253.8 111.818 256.5V256.62C111.818 259.2 109.718 260.88 106.418 260.88C102.578 260.88 99.398 259.14 96.398 256.08L89.078 263.4C93.158 267.9 98.858 270.84 106.958 270.84ZM144.224 270.84C153.584 270.84 160.424 265.38 160.424 256.86V256.74C160.424 249.6 155.564 246.24 149.564 244.92L159.584 236.34V228H129.224V237.42H145.304L135.644 246.12L137.324 252.18H142.244C146.624 252.18 149.084 253.8 149.084 256.5V256.62C149.084 259.2 146.984 260.88 143.684 260.88C139.844 260.88 136.664 259.14 133.664 256.08L126.344 263.4C130.424 267.9 136.124 270.84 144.224 270.84ZM180.056 270.84C192.656 270.84 199.496 261.48 199.496 247.74V247.62C199.496 239.88 197.516 235.08 194.456 232.08C191.276 228.9 187.676 227.16 181.556 227.16C171.956 227.16 164.816 233.16 164.816 242.46V242.58C164.816 250.8 170.756 255.84 178.916 255.84C182.636 255.84 185.636 254.46 187.796 252.42C187.256 257.82 184.676 261.18 179.876 261.18C176.516 261.18 173.756 260.1 170.876 257.82L165.416 265.86C169.256 268.86 173.816 270.84 180.056 270.84ZM182.096 247.5C178.436 247.5 176.096 245.16 176.096 241.98V241.86C176.096 238.62 178.316 236.22 181.976 236.22C185.636 236.22 187.976 238.68 187.976 241.92V242.04C187.976 245.1 185.756 247.5 182.096 247.5Z" fill="#F2EEED"/>
</g>
<g filter="url(#filter4_d_101_6)">
<rect x="25.1646" y="63.8101" width="199.519" height="7.18987" fill="#F2EEED"/>
</g>
<g filter="url(#filter5_d_101_6)">
<rect width="199.519" height="5.39241" transform="matrix(1 0 0 -1 25.1646 364.886)" fill="#F2EEED"/>
</g>
<g filter="url(#filter6_d_101_6)">
<rect x="62.0126" y="41.3418" width="125.823" height="7.18987" fill="#F2EEED"/>
</g>
<g filter="url(#filter7_d_101_6)">
<rect width="125.823" height="6.29114" transform="matrix(1 0 0 -1 62.0126 384.658)" fill="#F2EEED"/>
</g>
<g filter="url(#filter8_d_101_6)">
<path d="M74 206L177 171" stroke="#F3516F" stroke-width="5" stroke-linecap="square"/>
</g>
<path d="M202.17 270H204.498V267.6H205.65C207.738 267.6 209.262 266.556 209.262 264.576V264.552C209.262 262.692 207.894 261.6 205.77 261.6H202.17V270ZM204.498 265.776V263.556H205.59C206.43 263.556 206.934 263.94 206.934 264.66V264.684C206.934 265.344 206.43 265.776 205.602 265.776H204.498ZM210.244 270H212.572V267.6H213.724C215.812 267.6 217.336 266.556 217.336 264.576V264.552C217.336 262.692 215.968 261.6 213.844 261.6H210.244V270ZM212.572 265.776V263.556H213.664C214.504 263.556 215.008 263.94 215.008 264.66V264.684C215.008 265.344 214.504 265.776 213.676 265.776H212.572Z" fill="white"/>
<path d="M13.481 426L25.1559 405.778H1.80611L13.481 426Z" fill="#B5A2FC"/>
<path d="M40.443 426L52.1179 405.778H28.7681L40.443 426Z" fill="#B5A2FC"/>
<path d="M67.4051 426L79.08 405.778H55.7302L67.4051 426Z" fill="#B5A2FC"/>
<path d="M94.3671 426L106.042 405.778H82.6922L94.3671 426Z" fill="#B5A2FC"/>
<path d="M125.823 426L137.498 405.778H114.148L125.823 426Z" fill="#B5A2FC"/>
<path d="M157.278 426L168.953 405.778H145.604L157.278 426Z" fill="#B5A2FC"/>
<path d="M184.241 426L195.915 405.778H172.566L184.241 426Z" fill="#B5A2FC"/>
<path d="M211.203 426L222.877 405.778H199.528L211.203 426Z" fill="#B5A2FC"/>
<path d="M238.165 426L249.839 405.778H226.49L238.165 426Z" fill="#B5A2FC"/>
<defs>
<filter id="filter0_d_101_6" x="6.18515" y="84.18" width="239.011" height="33.262" filterUnits="userSpaceOnUse" color-interpolation-filters="sRGB">
<feFlood flood-opacity="0" result="BackgroundImageFix"/>
<feColorMatrix in="SourceAlpha" type="matrix" values="0 0 0 0 0 0 0 0 0 0 0 0 0 0 0 0 0 0 127 0" result="hardAlpha"/>
<feOffset dy="4"/>
<feGaussianBlur stdDeviation="2"/>
<feComposite in2="hardAlpha" operator="out"/>
<feColorMatrix type="matrix" values="0 0 0 0 0 0 0 0 0 0 0 0 0 0 0 0 0 0 0.25 0"/>
<feBlend mode="normal" in2="BackgroundImageFix" result="effect1_dropShadow_101_6"/>
<feBlend mode="normal" in="SourceGraphic" in2="effect1_dropShadow_101_6" result="shape"/>
</filter>
<filter id="filter1_d_101_6" x="75.1978" y="123.1" width="100.374" height="30.29" filterUnits="userSpaceOnUse" color-interpolation-filters="sRGB">
<feFlood flood-opacity="0" result="BackgroundImageFix"/>
<feColorMatrix in="SourceAlpha" type="matrix" values="0 0 0 0 0 0 0 0 0 0 0 0 0 0 0 0 0 0 127 0" result="hardAlpha"/>
<feOffset dy="4"/>
<feGaussianBlur stdDeviation="2"/>
<feComposite in2="hardAlpha" operator="out"/>
<feColorMatrix type="matrix" values="0 0 0 0 0 0 0 0 0 0 0 0 0 0 0 0 0 0 0.25 0"/>
<feBlend mode="normal" in2="BackgroundImageFix" result="effect1_dropShadow_101_6"/>
<feBlend mode="normal" in="SourceGraphic" in2="effect1_dropShadow_101_6" result="shape"/>
</filter>
<filter id="filter2_d_101_6" x="75.3355" y="173.712" width="98.749" height="38.816" filterUnits="userSpaceOnUse" color-interpolation-filters="sRGB">
<feFlood flood-opacity="0" result="BackgroundImageFix"/>
<feColorMatrix in="SourceAlpha" type="matrix" values="0 0 0 0 0 0 0 0 0 0 0 0 0 0 0 0 0 0 127 0" result="hardAlpha"/>
<feOffset dy="4"/>
<feGaussianBlur stdDeviation="2"/>
<feComposite in2="hardAlpha" operator="out"/>
<feColorMatrix type="matrix" values="0 0 0 0 0 0 0 0 0 0 0 0 0 0 0 0 0 0 0.25 0"/>
<feBlend mode="normal" in2="BackgroundImageFix" result="effect1_dropShadow_101_6"/>
<feBlend mode="normal" in="SourceGraphic" in2="effect1_dropShadow_101_6" result="shape"/>
</filter>
<filter id="filter3_d_101_6" x="45.5371" y="224.52" width="157.959" height="59.36" filterUnits="userSpaceOnUse" color-interpolation-filters="sRGB">
<feFlood flood-opacity="0" result="BackgroundImageFix"/>
<feColorMatrix in="SourceAlpha" type="matrix" values="0 0 0 0 0 0 0 0 0 0 0 0 0 0 0 0 0 0 127 0" result="hardAlpha"/>
<feOffset dy="4"/>
<feGaussianBlur stdDeviation="2"/>
<feComposite in2="hardAlpha" operator="out"/>
<feColorMatrix type="matrix" values="0 0 0 0 0 0 0 0 0 0 0 0 0 0 0 0 0 0 0.25 0"/>
<feBlend mode="normal" in2="BackgroundImageFix" result="effect1_dropShadow_101_6"/>
<feBlend mode="normal" in="SourceGraphic" in2="effect1_dropShadow_101_6" result="shape"/>
</filter>
<filter id="filter4_d_101_6" x="21.1646" y="63.8101" width="207.519" height="15.1899" filterUnits="userSpaceOnUse" color-interpolation-filters="sRGB">
<feFlood flood-opacity="0" result="BackgroundImageFix"/>
<feColorMatrix in="SourceAlpha" type="matrix" values="0 0 0 0 0 0 0 0 0 0 0 0 0 0 0 0 0 0 127 0" result="hardAlpha"/>
<feOffset dy="4"/>
<feGaussianBlur stdDeviation="2"/>
<feComposite in2="hardAlpha" operator="out"/>
<feColorMatrix type="matrix" values="0 0 0 0 0 0 0 0 0 0 0 0 0 0 0 0 0 0 0.25 0"/>
<feBlend mode="normal" in2="BackgroundImageFix" result="effect1_dropShadow_101_6"/>
<feBlend mode="normal" in="SourceGraphic" in2="effect1_dropShadow_101_6" result="shape"/>
</filter>
<filter id="filter5_d_101_6" x="21.1646" y="359.494" width="207.519" height="13.3924" filterUnits="userSpaceOnUse" color-interpolation-filters="sRGB">
<feFlood flood-opacity="0" result="BackgroundImageFix"/>
<feColorMatrix in="SourceAlpha" type="matrix" values="0 0 0 0 0 0 0 0 0 0 0 0 0 0 0 0 0 0 127 0" result="hardAlpha"/>
<feOffset dy="4"/>
<feGaussianBlur stdDeviation="2"/>
<feComposite in2="hardAlpha" operator="out"/>
<feColorMatrix type="matrix" values="0 0 0 0 0 0 0 0 0 0 0 0 0 0 0 0 0 0 0.25 0"/>
<feBlend mode="normal" in2="BackgroundImageFix" result="effect1_dropShadow_101_6"/>
<feBlend mode="normal" in="SourceGraphic" in2="effect1_dropShadow_101_6" result="shape"/>
</filter>
<filter id="filter6_d_101_6" x="58.0126" y="41.3418" width="133.823" height="15.1899" filterUnits="userSpaceOnUse" color-interpolation-filters="sRGB">
<feFlood flood-opacity="0" result="BackgroundImageFix"/>
<feColorMatrix in="SourceAlpha" type="matrix" values="0 0 0 0 0 0 0 0 0 0 0 0 0 0 0 0 0 0 127 0" result="hardAlpha"/>
<feOffset dy="4"/>
<feGaussianBlur stdDeviation="2"/>
<feComposite in2="hardAlpha" operator="out"/>
<feColorMatrix type="matrix" values="0 0 0 0 0 0 0 0 0 0 0 0 0 0 0 0 0 0 0.25 0"/>
<feBlend mode="normal" in2="BackgroundImageFix" result="effect1_dropShadow_101_6"/>
<feBlend mode="normal" in="SourceGraphic" in2="effect1_dropShadow_101_6" result="shape"/>
</filter>
<filter id="filter7_d_101_6" x="58.0126" y="378.367" width="133.823" height="14.2911" filterUnits="userSpaceOnUse" color-interpolation-filters="sRGB">
<feFlood flood-opacity="0" result="BackgroundImageFix"/>
<feColorMatrix in="SourceAlpha" type="matrix" values="0 0 0 0 0 0 0 0 0 0 0 0 0 0 0 0 0 0 127 0" result="hardAlpha"/>
<feOffset dy="4"/>
<feGaussianBlur stdDeviation="2"/>
<feComposite in2="hardAlpha" operator="out"/>
<feColorMatrix type="matrix" values="0 0 0 0 0 0 0 0 0 0 0 0 0 0 0 0 0 0 0.25 0"/>
<feBlend mode="normal" in2="BackgroundImageFix" result="effect1_dropShadow_101_6"/>
<feBlend mode="normal" in="SourceGraphic" in2="effect1_dropShadow_101_6" result="shape"/>
</filter>
<filter id="filter8_d_101_6" x="66.8286" y="167.829" width="117.343" height="49.3428" filterUnits="userSpaceOnUse" color-interpolation-filters="sRGB">
<feFlood flood-opacity="0" result="BackgroundImageFix"/>
<feColorMatrix in="SourceAlpha" type="matrix" values="0 0 0 0 0 0 0 0 0 0 0 0 0 0 0 0 0 0 127 0" result="hardAlpha"/>
<feOffset dy="4"/>
<feGaussianBlur stdDeviation="2"/>
<feComposite in2="hardAlpha" operator="out"/>
<feColorMatrix type="matrix" values="0 0 0 0 0 0 0 0 0 0 0 0 0 0 0 0 0 0 0.25 0"/>
<feBlend mode="normal" in2="BackgroundImageFix" result="effect1_dropShadow_101_6"/>
<feBlend mode="normal" in="SourceGraphic" in2="effect1_dropShadow_101_6" result="shape"/>
</filter>
</defs>
</svg>
