<svg width="280" height="474" viewBox="0 0 280 474" fill="none" xmlns="http://www.w3.org/2000/svg">
<path d="M15 0L27.9904 22.5H2.00962L15 0Z" fill="#68AAEC"/>
<path d="M44 0L56.9904 22.5H31.0096L44 0Z" fill="#68AAEC"/>
<path d="M74 0L86.9904 22.5H61.0096L74 0Z" fill="#68AAEC"/>
<path d="M104 0L116.99 22.5H91.0096L104 0Z" fill="#68AAEC"/>
<path d="M140 0L152.99 22.5H127.01L140 0Z" fill="#68AAEC"/>
<path d="M175 0L187.99 22.5H162.01L175 0Z" fill="#68AAEC"/>
<path d="M205 0L217.99 22.5H192.01L205 0Z" fill="#68AAEC"/>
<path d="M235 0L247.99 22.5H222.01L235 0Z" fill="#68AAEC"/>
<path d="M265 0L277.99 22.5H252.01L265 0Z" fill="#68AAEC"/>
<rect x="2" y="22" width="276" height="430" fill="#68AAEC"/>
<g filter="url(#filter0_d_101_3)">
<path d="M32.1206 127H57.1126V119.74H40.5686V114.856H55.3526V108.124H40.5686V103.46H56.8926V96.2H32.1206V127ZM67.8042 127.528C70.9282 127.528 73.1722 126.34 74.8002 124.536V127H83.0722V113.316C83.0722 109.972 82.3242 107.508 80.5202 105.748C78.6282 103.856 75.7242 102.844 71.4562 102.844C67.3642 102.844 64.5042 103.592 61.8202 104.692L63.5362 110.588C65.6482 109.752 67.5842 109.268 70.0922 109.268C73.3042 109.268 74.8442 110.676 74.8442 113.14V113.536C73.4802 113.052 71.3242 112.612 69.1242 112.612C63.5362 112.612 59.7962 115.164 59.7962 120.092V120.18C59.7962 124.932 63.2722 127.528 67.8042 127.528ZM70.7962 122.292C69.0802 122.292 67.8482 121.324 67.8482 119.696V119.608C67.8482 117.848 69.2562 116.66 71.6762 116.66C72.9082 116.66 74.0962 116.924 74.9322 117.276V118.376C74.9322 120.752 73.2162 122.292 70.7962 122.292ZM87.3241 127H95.6841V119.608C95.6841 114.108 98.1481 111.6 102.504 111.6H103.208V102.8C99.2481 102.624 97.0481 104.736 95.6841 107.992V103.196H87.3241V127ZM106.32 127H114.68V94.88H106.32V127ZM126.376 134.172C131.128 134.172 133.372 131.972 135.44 126.428L144.152 103.196H135.572L131.084 117.54L126.332 103.196H117.576L126.904 126.56C126.376 127.308 125.804 127.528 124.968 127.528C124.044 127.528 122.636 127.044 121.316 126.252L118.72 132.104C120.92 133.336 123.428 134.172 126.376 134.172ZM159.566 127H175.45C182.798 127 187.11 123.788 187.11 118.508V118.42C187.11 114.24 184.734 112.128 180.994 110.896C183.722 109.708 185.746 107.596 185.746 104.032V103.944C185.746 101.832 184.998 100.204 183.766 98.972C181.962 97.168 179.234 96.2 175.362 96.2H159.566V127ZM167.882 108.476V103.064H173.426C175.978 103.064 177.298 104.032 177.298 105.704V105.792C177.298 107.596 175.846 108.476 173.25 108.476H167.882ZM167.882 120.136V114.46H174.394C177.254 114.46 178.574 115.56 178.574 117.232V117.32C178.574 119.124 177.078 120.136 174.482 120.136H167.882ZM190.535 101.04H199.247V94.88H190.535V101.04ZM190.711 127H199.071V103.196H190.711V127ZM203.726 127H212.086V119.608C212.086 114.108 214.55 111.6 218.906 111.6H219.61V102.8C215.65 102.624 213.45 104.736 212.086 107.992V103.196H203.726V127ZM231.753 127.528C235.317 127.528 237.385 125.812 239.013 123.832V127H247.373V94.88H239.013V106.1C237.429 104.296 235.317 102.668 231.709 102.668C226.077 102.668 221.237 107.376 221.237 115.12V115.208C221.237 122.82 226.121 127.528 231.753 127.528ZM234.305 120.532C231.621 120.532 229.421 118.288 229.421 115.12V115.032C229.421 111.864 231.621 109.664 234.305 109.664C236.989 109.664 239.145 111.908 239.145 115.032V115.12C239.145 118.288 236.989 120.532 234.305 120.532Z" fill="#F2EEED"/>
</g>
<g filter="url(#filter1_d_101_3)">
<path d="M91.4974 169H98.4814V149.92H106.041V143.8H83.9374V149.92H91.4974V169ZM108.535 147.76H115.663V142.72H108.535V147.76ZM108.679 169H115.519V149.524H108.679V169ZM128.724 169.468C133.008 169.468 135.6 167.668 137.4 165.004L132.828 161.692C131.748 162.952 130.704 163.708 129.084 163.708C126.78 163.708 125.196 161.8 125.196 159.28V159.208C125.196 156.832 126.816 154.888 129.012 154.888C130.668 154.888 131.712 155.644 132.648 156.94L137.292 153.484C135.636 150.856 132.972 149.128 128.976 149.128C122.82 149.128 118.536 153.772 118.536 159.28V159.352C118.536 164.86 122.856 169.468 128.724 169.468ZM139.824 169H146.664V164.428L148.428 162.376L152.352 169H159.876L152.928 157.336L159.696 149.524H151.956L146.664 156.04V142.72H139.824V169ZM170.074 169.468C173.962 169.468 176.662 167.884 178.534 165.508L174.754 162.376C173.35 163.744 172.054 164.356 170.434 164.356C168.31 164.356 166.762 163.276 166.222 161.152H179.254C179.29 160.684 179.29 160.18 179.29 159.748C179.29 154.024 176.194 149.092 169.462 149.092C163.702 149.092 159.634 153.592 159.634 159.28V159.352C159.634 165.4 163.954 169.468 170.074 169.468ZM166.114 157.66C166.474 155.536 167.698 154.132 169.498 154.132C171.37 154.132 172.63 155.5 172.882 157.66H166.114ZM189.963 169.396C191.871 169.396 193.491 168.964 194.715 168.28V162.916C193.887 163.312 193.023 163.564 192.123 163.564C190.863 163.564 190.251 162.988 190.251 161.62V155.032H194.787V149.524H190.251V144.592H183.411V149.524H181.107V155.032H183.411V162.952C183.411 167.596 185.859 169.396 189.963 169.396Z" fill="#F2EEED"/>
</g>
<g filter="url(#filter2_d_101_3)">
<path d="M106.87 223.528H110.614V220C115.726 219.532 119.11 216.832 119.11 212.44V212.368C119.11 207.904 116.23 205.852 110.506 204.52V200.344C112.126 200.74 113.854 201.46 115.33 202.504L118.282 197.68C116.122 196.204 113.638 195.196 110.686 194.872V192.712H106.942V194.764C101.434 195.16 98.338 198.112 98.338 202.36V202.432C98.338 206.896 101.29 208.876 107.086 210.208V214.528C104.854 214.168 102.694 213.196 100.39 211.576L97.15 216.364C99.85 218.308 103.342 219.568 106.87 219.928V223.528ZM107.122 203.908C105.178 203.368 104.674 202.828 104.674 201.892V201.82C104.674 200.884 105.358 200.164 107.122 200.02V203.908ZM110.47 214.744V210.784C112.342 211.324 112.882 211.864 112.882 212.836V212.908C112.882 213.952 112.126 214.564 110.47 214.744ZM126.095 220H132.971V194.62H127.895L120.515 196.708L121.847 202.108L126.095 201.136V220ZM146.322 220.504C152.442 220.504 156.726 217.156 156.726 211.54V211.468C156.726 205.996 152.622 203.476 148.086 203.476C146.394 203.476 145.206 203.836 144.054 204.376L144.27 200.56H155.61V194.8H138.762L138.042 207.58L142.182 209.884C143.37 209.164 144.666 208.624 146.214 208.624C148.41 208.624 149.922 209.74 149.922 211.54V211.612C149.922 213.412 148.518 214.564 146.214 214.564C144.09 214.564 142.146 213.556 140.094 211.828L136.098 216.508C138.726 218.956 141.858 220.504 146.322 220.504ZM168.606 220.504C176.166 220.504 180.27 214.888 180.27 206.644V206.572C180.27 201.928 179.082 199.048 177.246 197.248C175.338 195.34 173.178 194.296 169.506 194.296C163.746 194.296 159.462 197.896 159.462 203.476V203.548C159.462 208.48 163.026 211.504 167.922 211.504C170.154 211.504 171.954 210.676 173.25 209.452C172.926 212.692 171.378 214.708 168.498 214.708C166.482 214.708 164.826 214.06 163.098 212.692L159.822 217.516C162.126 219.316 164.862 220.504 168.606 220.504ZM169.83 206.5C167.634 206.5 166.23 205.096 166.23 203.188V203.116C166.23 201.172 167.562 199.732 169.758 199.732C171.954 199.732 173.358 201.208 173.358 203.152V203.224C173.358 205.06 172.026 206.5 169.83 206.5Z" fill="#F2EEED"/>
</g>
<g filter="url(#filter3_d_101_3)">
<path d="M81.9113 303.272H88.5673V297C97.6553 296.168 103.671 291.368 103.671 283.56V283.432C103.671 275.496 98.5513 271.848 88.3753 269.48V262.056C91.2553 262.76 94.3273 264.04 96.9513 265.896L102.199 257.32C98.3593 254.696 93.9433 252.904 88.6953 252.328V248.488H82.0393V252.136C72.2473 252.84 66.7433 258.088 66.7433 265.64V265.768C66.7433 273.704 71.9913 277.224 82.2953 279.592V287.272C78.3273 286.632 74.4873 284.904 70.3913 282.024L64.6313 290.536C69.4313 293.992 75.6393 296.232 81.9113 296.872V303.272ZM82.3593 268.392C78.9033 267.432 78.0073 266.472 78.0073 264.808V264.68C78.0073 263.016 79.2233 261.736 82.3593 261.48V268.392ZM88.3113 287.656V280.616C91.6393 281.576 92.5993 282.536 92.5993 284.264V284.392C92.5993 286.248 91.2553 287.336 88.3113 287.656ZM116.088 297H128.312V251.88H119.288L106.168 255.592L108.536 265.192L116.088 263.464V297ZM134.768 297H170.224V286.888H151.728L159.408 281.512C166.064 276.712 169.776 273 169.776 265.832V265.704C169.776 257.256 163.056 251.432 153.264 251.432C144.56 251.432 139.824 254.824 135.024 261.032L143.408 268.008C146.928 263.976 149.296 262.248 152.304 262.248C155.312 262.248 157.296 263.976 157.296 266.792C157.296 269.48 155.696 271.592 151.536 274.856L134.768 287.656V297ZM191.602 297.896C205.042 297.896 212.338 287.912 212.338 273.256V273.128C212.338 264.872 210.226 259.752 206.962 256.552C203.57 253.16 199.73 251.304 193.202 251.304C182.962 251.304 175.346 257.704 175.346 267.624V267.752C175.346 276.52 181.682 281.896 190.386 281.896C194.354 281.896 197.554 280.424 199.858 278.248C199.282 284.008 196.53 287.592 191.41 287.592C187.826 287.592 184.882 286.44 181.81 284.008L175.986 292.584C180.082 295.784 184.946 297.896 191.602 297.896ZM193.778 273C189.874 273 187.378 270.504 187.378 267.112V266.984C187.378 263.528 189.746 260.968 193.65 260.968C197.554 260.968 200.05 263.592 200.05 267.048V267.176C200.05 270.44 197.682 273 193.778 273Z" fill="#F2EEED"/>
</g>
<g filter="url(#filter4_d_101_3)">
<rect x="28" y="71" width="222" height="8" fill="#F2EEED"/>
</g>
<g filter="url(#filter5_d_101_3)">
<rect width="222" height="6" transform="matrix(1 0 0 -1 28 406)" fill="#F2EEED"/>
</g>
<g filter="url(#filter6_d_101_3)">
<rect x="69" y="46" width="140" height="8" fill="#F2EEED"/>
</g>
<g filter="url(#filter7_d_101_3)">
<rect width="140" height="7" transform="matrix(1 0 0 -1 69 428)" fill="#F2EEED"/>
</g>
<g filter="url(#filter8_d_101_3)">
<path d="M91 226L197 191" stroke="#F3516F" stroke-width="5" stroke-linecap="square"/>
</g>
<path d="M58.797 391.196C61.821 391.196 64.089 388.914 64.089 386.1V386.072C64.089 383.258 61.849 381.004 58.825 381.004C55.801 381.004 53.533 383.286 53.533 386.1V386.128C53.533 388.942 55.773 391.196 58.797 391.196ZM58.825 388.746C57.341 388.746 56.319 387.514 56.319 386.1V386.072C56.319 384.658 57.313 383.454 58.797 383.454C60.295 383.454 61.317 384.686 61.317 386.1V386.128C61.317 387.542 60.323 388.746 58.825 388.746ZM65.8257 391H68.4717V385.554H70.1657V383.51H68.4297V383.328C68.4297 382.838 68.6957 382.614 69.1857 382.614C69.5637 382.614 69.8717 382.67 70.1797 382.768V380.892C69.7597 380.766 69.2557 380.682 68.4437 380.682C67.5477 380.682 66.9317 380.878 66.4697 381.34C66.0217 381.788 65.8257 382.432 65.8257 383.3V383.468H64.9437V385.554H65.8257V391ZM71.4859 391H74.1319V385.554H75.8259V383.51H74.0899V383.328C74.0899 382.838 74.3559 382.614 74.8459 382.614C75.2239 382.614 75.5319 382.67 75.8399 382.768V380.892C75.4199 380.766 74.9159 380.682 74.1039 380.682C73.2079 380.682 72.5919 380.878 72.1299 381.34C71.6819 381.788 71.4859 382.432 71.4859 383.3V383.468H70.6039V385.554H71.4859V391ZM80.2853 391.182C81.7973 391.182 82.8473 390.566 83.5753 389.642L82.1053 388.424C81.5593 388.956 81.0553 389.194 80.4253 389.194C79.5993 389.194 78.9973 388.774 78.7873 387.948H83.8553C83.8693 387.766 83.8693 387.57 83.8693 387.402C83.8693 385.176 82.6653 383.258 80.0473 383.258C77.8073 383.258 76.2253 385.008 76.2253 387.22V387.248C76.2253 389.6 77.9053 391.182 80.2853 391.182ZM78.7453 386.59C78.8853 385.764 79.3613 385.218 80.0613 385.218C80.7893 385.218 81.2793 385.75 81.3773 386.59H78.7453ZM85.0099 391H87.6699V388.648C87.6699 386.898 88.4539 386.1 89.8399 386.1H90.0639V383.3C88.8039 383.244 88.1039 383.916 87.6699 384.952V383.426H85.0099V391ZM98.633 391.182C100.145 391.182 101.195 390.566 101.923 389.642L100.453 388.424C99.907 388.956 99.403 389.194 98.773 389.194C97.947 389.194 97.345 388.774 97.135 387.948H102.203C102.217 387.766 102.217 387.57 102.217 387.402C102.217 385.176 101.013 383.258 98.395 383.258C96.155 383.258 94.573 385.008 94.573 387.22V387.248C94.573 389.6 96.253 391.182 98.633 391.182ZM97.093 386.59C97.233 385.764 97.709 385.218 98.409 385.218C99.137 385.218 99.627 385.75 99.725 386.59H97.093ZM103.358 391H106.018V386.898C106.018 386.072 106.494 385.624 107.138 385.624C107.768 385.624 108.202 386.072 108.202 386.898V391H110.862V386.044C110.862 384.322 109.896 383.258 108.286 383.258C107.208 383.258 106.508 383.86 106.018 384.49V383.426H103.358V391ZM115.297 391.168C116.431 391.168 117.089 390.622 117.607 389.992V391H120.267V380.78H117.607V384.35C117.103 383.776 116.431 383.258 115.283 383.258C113.491 383.258 111.951 384.756 111.951 387.22V387.248C111.951 389.67 113.505 391.168 115.297 391.168ZM116.109 388.942C115.255 388.942 114.555 388.228 114.555 387.22V387.192C114.555 386.184 115.255 385.484 116.109 385.484C116.963 385.484 117.649 386.198 117.649 387.192V387.22C117.649 388.228 116.963 388.942 116.109 388.942ZM124.702 391.168C126.55 391.168 127.796 390.3 127.796 388.634V388.606C127.796 387.136 126.606 386.618 125.108 386.198C124.31 385.96 123.876 385.82 123.876 385.526V385.498C123.876 385.288 124.086 385.134 124.492 385.134C125.094 385.134 125.948 385.4 126.732 385.834L127.642 384.154C126.774 383.594 125.626 383.272 124.52 383.272C122.77 383.272 121.482 384.168 121.482 385.778V385.806C121.482 387.332 122.672 387.836 124.17 388.228C124.968 388.452 125.388 388.578 125.388 388.872V388.9C125.388 389.166 125.178 389.306 124.716 389.306C123.932 389.306 122.98 389.012 122.112 388.438L121.118 390.048C122.168 390.804 123.428 391.168 124.702 391.168ZM132.92 391H135.608V385.624L139.794 391H142.174V381.2H139.486V386.38L135.454 381.2H132.92V391ZM147.622 391.182C150.058 391.182 151.822 389.376 151.822 387.22V387.192C151.822 385.036 150.072 383.258 147.65 383.258C145.214 383.258 143.45 385.064 143.45 387.22V387.248C143.45 389.404 145.2 391.182 147.622 391.182ZM147.65 388.928C146.712 388.928 146.04 388.144 146.04 387.22V387.192C146.04 386.282 146.656 385.512 147.622 385.512C148.56 385.512 149.232 386.296 149.232 387.22V387.248C149.232 388.158 148.616 388.928 147.65 388.928ZM154.972 391.056H157.394L160.418 383.426H157.66L156.204 387.85L154.748 383.426H151.948L154.972 391.056ZM164.572 391.182C166.084 391.182 167.134 390.566 167.862 389.642L166.392 388.424C165.846 388.956 165.342 389.194 164.712 389.194C163.886 389.194 163.284 388.774 163.074 387.948H168.142C168.156 387.766 168.156 387.57 168.156 387.402C168.156 385.176 166.952 383.258 164.334 383.258C162.094 383.258 160.512 385.008 160.512 387.22V387.248C160.512 389.6 162.192 391.182 164.572 391.182ZM163.032 386.59C163.172 385.764 163.648 385.218 164.348 385.218C165.076 385.218 165.566 385.75 165.664 386.59H163.032ZM169.297 391H171.957V386.884C171.957 386.058 172.405 385.624 173.035 385.624C173.665 385.624 174.071 386.058 174.071 386.884V391H176.731V386.884C176.731 386.058 177.193 385.624 177.823 385.624C178.453 385.624 178.859 386.058 178.859 386.884V391H181.519V386.03C181.519 384.266 180.539 383.258 178.929 383.258C177.823 383.258 177.053 383.734 176.395 384.49C175.989 383.706 175.219 383.258 174.211 383.258C173.147 383.258 172.447 383.832 171.957 384.462V383.426H169.297V391ZM187.857 391.168C189.649 391.168 191.203 389.67 191.203 387.206V387.178C191.203 384.756 189.649 383.258 187.843 383.258C186.709 383.258 186.065 383.804 185.547 384.434V380.78H182.887V391H185.547V390.076C186.037 390.65 186.709 391.168 187.857 391.168ZM187.031 388.942C186.177 388.942 185.491 388.228 185.491 387.22V387.192C185.491 386.198 186.177 385.484 187.031 385.484C187.899 385.484 188.585 386.198 188.585 387.192V387.22C188.585 388.242 187.899 388.942 187.031 388.942ZM196.1 391.182C197.612 391.182 198.662 390.566 199.39 389.642L197.92 388.424C197.374 388.956 196.87 389.194 196.24 389.194C195.414 389.194 194.812 388.774 194.602 387.948H199.67C199.684 387.766 199.684 387.57 199.684 387.402C199.684 385.176 198.48 383.258 195.862 383.258C193.622 383.258 192.04 385.008 192.04 387.22V387.248C192.04 389.6 193.72 391.182 196.1 391.182ZM194.56 386.59C194.7 385.764 195.176 385.218 195.876 385.218C196.604 385.218 197.094 385.75 197.192 386.59H194.56ZM200.824 391H203.484V388.648C203.484 386.898 204.268 386.1 205.654 386.1H205.878V383.3C204.618 383.244 203.918 383.916 203.484 384.952V383.426H200.824V391ZM212.263 391H214.937V381.13H212.963L210.093 381.942L210.611 384.042L212.263 383.664V391ZM220.046 391.196C222.986 391.196 224.582 389.012 224.582 385.806V385.778C224.582 383.972 224.12 382.852 223.406 382.152C222.664 381.41 221.824 381.004 220.396 381.004C218.156 381.004 216.49 382.404 216.49 384.574V384.602C216.49 386.52 217.876 387.696 219.78 387.696C220.648 387.696 221.348 387.374 221.852 386.898C221.726 388.158 221.124 388.942 220.004 388.942C219.22 388.942 218.576 388.69 217.904 388.158L216.63 390.034C217.526 390.734 218.59 391.196 220.046 391.196ZM220.522 385.75C219.668 385.75 219.122 385.204 219.122 384.462V384.434C219.122 383.678 219.64 383.118 220.494 383.118C221.348 383.118 221.894 383.692 221.894 384.448V384.476C221.894 385.19 221.376 385.75 220.522 385.75ZM225.623 391H228.395V388.27H225.623V391Z" fill="white"/>
<path d="M215.948 297H218.664V294.2H220.008C222.444 294.2 224.222 292.982 224.222 290.672V290.644C224.222 288.474 222.626 287.2 220.148 287.2H215.948V297ZM218.664 292.072V289.482H219.938C220.918 289.482 221.506 289.93 221.506 290.77V290.798C221.506 291.568 220.918 292.072 219.952 292.072H218.664ZM225.368 297H228.084V294.2H229.428C231.864 294.2 233.642 292.982 233.642 290.672V290.644C233.642 288.474 232.046 287.2 229.568 287.2H225.368V297ZM228.084 292.072V289.482H229.358C230.338 289.482 230.926 289.93 230.926 290.77V290.798C230.926 291.568 230.338 292.072 229.372 292.072H228.084Z" fill="white"/>
<path d="M15 474L27.9904 451.5H2.00962L15 474Z" fill="#68AAEC"/>
<path d="M45 474L57.9904 451.5H32.0096L45 474Z" fill="#68AAEC"/>
<path d="M75 474L87.9904 451.5H62.0096L75 474Z" fill="#68AAEC"/>
<path d="M105 474L117.99 451.5H92.0096L105 474Z" fill="#68AAEC"/>
<path d="M140 474L152.99 451.5H127.01L140 474Z" fill="#68AAEC"/>
<path d="M175 474L187.99 451.5H162.01L175 474Z" fill="#68AAEC"/>
<path d="M205 474L217.99 451.5H192.01L205 474Z" fill="#68AAEC"/>
<path d="M235 474L247.99 451.5H222.01L235 474Z" fill="#68AAEC"/>
<path d="M265 474L277.99 451.5H252.01L265 474Z" fill="#68AAEC"/>
<defs>
<filter id="filter0_d_101_3" x="28.1206" y="94.88" width="223.252" height="47.292" filterUnits="userSpaceOnUse" color-interpolation-filters="sRGB">
<feFlood flood-opacity="0" result="BackgroundImageFix"/>
<feColorMatrix in="SourceAlpha" type="matrix" values="0 0 0 0 0 0 0 0 0 0 0 0 0 0 0 0 0 0 127 0" result="hardAlpha"/>
<feOffset dy="4"/>
<feGaussianBlur stdDeviation="2"/>
<feComposite in2="hardAlpha" operator="out"/>
<feColorMatrix type="matrix" values="0 0 0 0 0 0 0 0 0 0 0 0 0 0 0 0 0 0 0.25 0"/>
<feBlend mode="normal" in2="BackgroundImageFix" result="effect1_dropShadow_101_3"/>
<feBlend mode="normal" in="SourceGraphic" in2="effect1_dropShadow_101_3" result="shape"/>
</filter>
<filter id="filter1_d_101_3" x="79.9374" y="142.72" width="118.849" height="34.748" filterUnits="userSpaceOnUse" color-interpolation-filters="sRGB">
<feFlood flood-opacity="0" result="BackgroundImageFix"/>
<feColorMatrix in="SourceAlpha" type="matrix" values="0 0 0 0 0 0 0 0 0 0 0 0 0 0 0 0 0 0 127 0" result="hardAlpha"/>
<feOffset dy="4"/>
<feGaussianBlur stdDeviation="2"/>
<feComposite in2="hardAlpha" operator="out"/>
<feColorMatrix type="matrix" values="0 0 0 0 0 0 0 0 0 0 0 0 0 0 0 0 0 0 0.25 0"/>
<feBlend mode="normal" in2="BackgroundImageFix" result="effect1_dropShadow_101_3"/>
<feBlend mode="normal" in="SourceGraphic" in2="effect1_dropShadow_101_3" result="shape"/>
</filter>
<filter id="filter2_d_101_3" x="93.15" y="192.712" width="91.1201" height="38.816" filterUnits="userSpaceOnUse" color-interpolation-filters="sRGB">
<feFlood flood-opacity="0" result="BackgroundImageFix"/>
<feColorMatrix in="SourceAlpha" type="matrix" values="0 0 0 0 0 0 0 0 0 0 0 0 0 0 0 0 0 0 127 0" result="hardAlpha"/>
<feOffset dy="4"/>
<feGaussianBlur stdDeviation="2"/>
<feComposite in2="hardAlpha" operator="out"/>
<feColorMatrix type="matrix" values="0 0 0 0 0 0 0 0 0 0 0 0 0 0 0 0 0 0 0.25 0"/>
<feBlend mode="normal" in2="BackgroundImageFix" result="effect1_dropShadow_101_3"/>
<feBlend mode="normal" in="SourceGraphic" in2="effect1_dropShadow_101_3" result="shape"/>
</filter>
<filter id="filter3_d_101_3" x="60.6313" y="248.488" width="155.706" height="62.7841" filterUnits="userSpaceOnUse" color-interpolation-filters="sRGB">
<feFlood flood-opacity="0" result="BackgroundImageFix"/>
<feColorMatrix in="SourceAlpha" type="matrix" values="0 0 0 0 0 0 0 0 0 0 0 0 0 0 0 0 0 0 127 0" result="hardAlpha"/>
<feOffset dy="4"/>
<feGaussianBlur stdDeviation="2"/>
<feComposite in2="hardAlpha" operator="out"/>
<feColorMatrix type="matrix" values="0 0 0 0 0 0 0 0 0 0 0 0 0 0 0 0 0 0 0.25 0"/>
<feBlend mode="normal" in2="BackgroundImageFix" result="effect1_dropShadow_101_3"/>
<feBlend mode="normal" in="SourceGraphic" in2="effect1_dropShadow_101_3" result="shape"/>
</filter>
<filter id="filter4_d_101_3" x="24" y="71" width="230" height="16" filterUnits="userSpaceOnUse" color-interpolation-filters="sRGB">
<feFlood flood-opacity="0" result="BackgroundImageFix"/>
<feColorMatrix in="SourceAlpha" type="matrix" values="0 0 0 0 0 0 0 0 0 0 0 0 0 0 0 0 0 0 127 0" result="hardAlpha"/>
<feOffset dy="4"/>
<feGaussianBlur stdDeviation="2"/>
<feComposite in2="hardAlpha" operator="out"/>
<feColorMatrix type="matrix" values="0 0 0 0 0 0 0 0 0 0 0 0 0 0 0 0 0 0 0.25 0"/>
<feBlend mode="normal" in2="BackgroundImageFix" result="effect1_dropShadow_101_3"/>
<feBlend mode="normal" in="SourceGraphic" in2="effect1_dropShadow_101_3" result="shape"/>
</filter>
<filter id="filter5_d_101_3" x="24" y="400" width="230" height="14" filterUnits="userSpaceOnUse" color-interpolation-filters="sRGB">
<feFlood flood-opacity="0" result="BackgroundImageFix"/>
<feColorMatrix in="SourceAlpha" type="matrix" values="0 0 0 0 0 0 0 0 0 0 0 0 0 0 0 0 0 0 127 0" result="hardAlpha"/>
<feOffset dy="4"/>
<feGaussianBlur stdDeviation="2"/>
<feComposite in2="hardAlpha" operator="out"/>
<feColorMatrix type="matrix" values="0 0 0 0 0 0 0 0 0 0 0 0 0 0 0 0 0 0 0.25 0"/>
<feBlend mode="normal" in2="BackgroundImageFix" result="effect1_dropShadow_101_3"/>
<feBlend mode="normal" in="SourceGraphic" in2="effect1_dropShadow_101_3" result="shape"/>
</filter>
<filter id="filter6_d_101_3" x="65" y="46" width="148" height="16" filterUnits="userSpaceOnUse" color-interpolation-filters="sRGB">
<feFlood flood-opacity="0" result="BackgroundImageFix"/>
<feColorMatrix in="SourceAlpha" type="matrix" values="0 0 0 0 0 0 0 0 0 0 0 0 0 0 0 0 0 0 127 0" result="hardAlpha"/>
<feOffset dy="4"/>
<feGaussianBlur stdDeviation="2"/>
<feComposite in2="hardAlpha" operator="out"/>
<feColorMatrix type="matrix" values="0 0 0 0 0 0 0 0 0 0 0 0 0 0 0 0 0 0 0.25 0"/>
<feBlend mode="normal" in2="BackgroundImageFix" result="effect1_dropShadow_101_3"/>
<feBlend mode="normal" in="SourceGraphic" in2="effect1_dropShadow_101_3" result="shape"/>
</filter>
<filter id="filter7_d_101_3" x="65" y="421" width="148" height="15" filterUnits="userSpaceOnUse" color-interpolation-filters="sRGB">
<feFlood flood-opacity="0" result="BackgroundImageFix"/>
<feColorMatrix in="SourceAlpha" type="matrix" values="0 0 0 0 0 0 0 0 0 0 0 0 0 0 0 0 0 0 127 0" result="hardAlpha"/>
<feOffset dy="4"/>
<feGaussianBlur stdDeviation="2"/>
<feComposite in2="hardAlpha" operator="out"/>
<feColorMatrix type="matrix" values="0 0 0 0 0 0 0 0 0 0 0 0 0 0 0 0 0 0 0.25 0"/>
<feBlend mode="normal" in2="BackgroundImageFix" result="effect1_dropShadow_101_3"/>
<feBlend mode="normal" in="SourceGraphic" in2="effect1_dropShadow_101_3" result="shape"/>
</filter>
<filter id="filter8_d_101_3" x="83.8422" y="187.842" width="120.316" height="49.3156" filterUnits="userSpaceOnUse" color-interpolation-filters="sRGB">
<feFlood flood-opacity="0" result="BackgroundImageFix"/>
<feColorMatrix in="SourceAlpha" type="matrix" values="0 0 0 0 0 0 0 0 0 0 0 0 0 0 0 0 0 0 127 0" result="hardAlpha"/>
<feOffset dy="4"/>
<feGaussianBlur stdDeviation="2"/>
<feComposite in2="hardAlpha" operator="out"/>
<feColorMatrix type="matrix" values="0 0 0 0 0 0 0 0 0 0 0 0 0 0 0 0 0 0 0.25 0"/>
<feBlend mode="normal" in2="BackgroundImageFix" result="effect1_dropShadow_101_3"/>
<feBlend mode="normal" in="SourceGraphic" in2="effect1_dropShadow_101_3" result="shape"/>
</filter>
</defs>
</svg>
