<svg width="78" height="106" viewBox="0 0 78 106" fill="none" xmlns="http://www.w3.org/2000/svg">
<ellipse cx="15.0493" cy="15.849" rx="3.16037" ry="1.94156" transform="rotate(-15 15.0493 15.849)" fill="#B5A2FC"/>
<ellipse cx="3.55519" cy="15.8771" rx="3.16037" ry="1.94156" transform="rotate(-15 3.55519 15.8771)" fill="#B5A2FC"/>
<rect x="15.9958" width="1.73909" height="15.6518" fill="#B5A2FC"/>
<rect x="4.6917" width="1.73909" height="15.6518" fill="#B5A2FC"/>
<rect x="17.7349" width="2.60864" height="13.0432" transform="rotate(90 17.7349 0)" fill="#B5A2FC"/>
<ellipse cx="74.0492" cy="102.849" rx="3.16037" ry="1.94156" transform="rotate(-15 74.0492 102.849)" fill="#F3516F"/>
<ellipse cx="62.5552" cy="102.877" rx="3.16037" ry="1.94156" transform="rotate(-15 62.5552 102.877)" fill="#F3516F"/>
<rect x="74.9958" y="87" width="1.73909" height="15.6518" fill="#F3516F"/>
<rect x="63.6917" y="87" width="1.73909" height="15.6518" fill="#F3516F"/>
<rect x="76.7349" y="87" width="2.60864" height="13.0432" transform="rotate(90 76.7349 87)" fill="#F3516F"/>
<ellipse cx="17.0493" cy="39.849" rx="3.16037" ry="1.94156" transform="rotate(-15 17.0493 39.849)" fill="#68AAEC"/>
<ellipse cx="5.55519" cy="39.8771" rx="3.16037" ry="1.94156" transform="rotate(-15 5.55519 39.8771)" fill="#68AAEC"/>
<rect x="17.9958" y="24" width="1.73909" height="15.6518" fill="#68AAEC"/>
<rect x="6.6917" y="24" width="1.73909" height="15.6518" fill="#68AAEC"/>
<rect x="19.7349" y="24" width="2.60864" height="13.0432" transform="rotate(90 19.7349 24)" fill="#68AAEC"/>
<ellipse cx="26.0492" cy="63.849" rx="3.16037" ry="1.94156" transform="rotate(-15 26.0492 63.849)" fill="#F3516F"/>
<ellipse cx="14.5552" cy="63.8771" rx="3.16037" ry="1.94156" transform="rotate(-15 14.5552 63.8771)" fill="#F3516F"/>
<rect x="26.9958" y="48" width="1.73909" height="15.6518" fill="#F3516F"/>
<rect x="15.6917" y="48" width="1.73909" height="15.6518" fill="#F3516F"/>
<rect x="28.7349" y="48" width="2.60864" height="13.0432" transform="rotate(90 28.7349 48)" fill="#F3516F"/>
<ellipse cx="34.0492" cy="87.849" rx="3.16037" ry="1.94156" transform="rotate(-15 34.0492 87.849)" fill="#B5A2FC"/>
<ellipse cx="22.5552" cy="87.8771" rx="3.16037" ry="1.94156" transform="rotate(-15 22.5552 87.8771)" fill="#B5A2FC"/>
<rect x="34.9958" y="72" width="1.73909" height="15.6518" fill="#B5A2FC"/>
<rect x="23.6917" y="72" width="1.73909" height="15.6518" fill="#B5A2FC"/>
<rect x="36.7349" y="72" width="2.60864" height="13.0432" transform="rotate(90 36.7349 72)" fill="#B5A2FC"/>
<ellipse cx="54.0492" cy="97.849" rx="3.16037" ry="1.94156" transform="rotate(-15 54.0492 97.849)" fill="#68AAEC"/>
<ellipse cx="42.5552" cy="97.8771" rx="3.16037" ry="1.94156" transform="rotate(-15 42.5552 97.8771)" fill="#68AAEC"/>
<rect x="54.9958" y="82" width="1.73909" height="15.6518" fill="#68AAEC"/>
<rect x="43.6917" y="82" width="1.73909" height="15.6518" fill="#68AAEC"/>
<rect x="56.7349" y="82" width="2.60864" height="13.0432" transform="rotate(90 56.7349 82)" fill="#68AAEC"/>
</svg>
