<svg width="110" height="76" viewBox="0 0 110 76" fill="none" xmlns="http://www.w3.org/2000/svg">
<ellipse cx="15.0492" cy="15.849" rx="3.16037" ry="1.94156" transform="rotate(-15 15.0492 15.849)" fill="#B5A2FC"/>
<ellipse cx="3.55519" cy="15.8771" rx="3.16037" ry="1.94156" transform="rotate(-15 3.55519 15.8771)" fill="#B5A2FC"/>
<rect x="15.9958" width="1.73909" height="15.6518" fill="#B5A2FC"/>
<rect x="4.69171" width="1.73909" height="15.6518" fill="#B5A2FC"/>
<rect x="17.7349" width="2.60864" height="13.0432" transform="rotate(90 17.7349 0)" fill="#B5A2FC"/>
<ellipse cx="106.049" cy="72.849" rx="3.16037" ry="1.94156" transform="rotate(-15 106.049 72.849)" fill="#F3516F"/>
<ellipse cx="94.5552" cy="72.8771" rx="3.16037" ry="1.94156" transform="rotate(-15 94.5552 72.8771)" fill="#F3516F"/>
<rect x="106.996" y="57" width="1.73909" height="15.6518" fill="#F3516F"/>
<rect x="95.6917" y="57" width="1.73909" height="15.6518" fill="#F3516F"/>
<rect x="108.735" y="57" width="2.60864" height="13.0432" transform="rotate(90 108.735 57)" fill="#F3516F"/>
<ellipse cx="38.0492" cy="17.849" rx="3.16037" ry="1.94156" transform="rotate(-15 38.0492 17.849)" fill="#68AAEC"/>
<ellipse cx="26.5552" cy="17.8771" rx="3.16037" ry="1.94156" transform="rotate(-15 26.5552 17.8771)" fill="#68AAEC"/>
<rect x="38.9958" y="2" width="1.73909" height="15.6518" fill="#68AAEC"/>
<rect x="27.6917" y="2" width="1.73909" height="15.6518" fill="#68AAEC"/>
<rect x="40.7349" y="2" width="2.60864" height="13.0432" transform="rotate(90 40.7349 2)" fill="#68AAEC"/>
<ellipse cx="60.0492" cy="21.849" rx="3.16037" ry="1.94156" transform="rotate(-15 60.0492 21.849)" fill="#F3516F"/>
<ellipse cx="48.5552" cy="21.8771" rx="3.16037" ry="1.94156" transform="rotate(-15 48.5552 21.8771)" fill="#F3516F"/>
<rect x="60.9958" y="6" width="1.73909" height="15.6518" fill="#F3516F"/>
<rect x="49.6917" y="6" width="1.73909" height="15.6518" fill="#F3516F"/>
<rect x="62.7349" y="6" width="2.60864" height="13.0432" transform="rotate(90 62.7349 6)" fill="#F3516F"/>
<ellipse cx="82.0492" cy="27.849" rx="3.16037" ry="1.94156" transform="rotate(-15 82.0492 27.849)" fill="#B5A2FC"/>
<ellipse cx="70.5552" cy="27.8771" rx="3.16037" ry="1.94156" transform="rotate(-15 70.5552 27.8771)" fill="#B5A2FC"/>
<rect x="82.9958" y="12" width="1.73909" height="15.6518" fill="#B5A2FC"/>
<rect x="71.6917" y="12" width="1.73909" height="15.6518" fill="#B5A2FC"/>
<rect x="84.7349" y="12" width="2.60864" height="13.0432" transform="rotate(90 84.7349 12)" fill="#B5A2FC"/>
<ellipse cx="100.049" cy="46.849" rx="3.16037" ry="1.94156" transform="rotate(-15 100.049 46.849)" fill="#68AAEC"/>
<ellipse cx="88.5552" cy="46.8771" rx="3.16037" ry="1.94156" transform="rotate(-15 88.5552 46.8771)" fill="#68AAEC"/>
<rect x="100.996" y="31" width="1.73909" height="15.6518" fill="#68AAEC"/>
<rect x="89.6917" y="31" width="1.73909" height="15.6518" fill="#68AAEC"/>
<rect x="102.735" y="31" width="2.60864" height="13.0432" transform="rotate(90 102.735 31)" fill="#68AAEC"/>
</svg>
